<svg xmlns="http://www.w3.org/2000/svg" xmlns:xlink="http://www.w3.org/1999/xlink" width="150" zoomAndPan="magnify" viewBox="0 0 112.5 112.499997" height="150" preserveAspectRatio="xMidYMid meet" version="1.0"><defs><g/><clipPath id="2012ea4cc6"><path d="M 2.894531 1.996094 L 109.363281 1.996094 L 109.363281 108.464844 L 2.894531 108.464844 Z M 2.894531 1.996094 " clip-rule="nonzero"/></clipPath><clipPath id="3f481bbfd2"><path d="M 56.128906 1.996094 C 26.730469 1.996094 2.894531 25.828125 2.894531 55.230469 C 2.894531 84.628906 26.730469 108.464844 56.128906 108.464844 C 85.53125 108.464844 109.363281 84.628906 109.363281 55.230469 C 109.363281 25.828125 85.53125 1.996094 56.128906 1.996094 Z M 56.128906 1.996094 " clip-rule="nonzero"/></clipPath><clipPath id="3e92c52a9c"><path d="M 0.894531 0.996094 L 107.363281 0.996094 L 107.363281 107.464844 L 0.894531 107.464844 Z M 0.894531 0.996094 " clip-rule="nonzero"/></clipPath><clipPath id="17c7c8386e"><path d="M 54.128906 0.996094 C 24.730469 0.996094 0.894531 24.828125 0.894531 54.230469 C 0.894531 83.628906 24.730469 107.464844 54.128906 107.464844 C 83.53125 107.464844 107.363281 83.628906 107.363281 54.230469 C 107.363281 24.828125 83.53125 0.996094 54.128906 0.996094 Z M 54.128906 0.996094 " clip-rule="nonzero"/></clipPath><clipPath id="9e6ff0284c"><rect x="0" width="108" y="0" height="108"/></clipPath><clipPath id="d5c6dfbccf"><path d="M 4 20 L 48.8125 20 L 48.8125 70 L 4 70 Z M 4 20 " clip-rule="nonzero"/></clipPath><clipPath id="42613cdff3"><rect x="0" width="49" y="0" height="85"/></clipPath><clipPath id="ae0e188fbb"><path d="M 2 25 L 38.734375 25 L 38.734375 75 L 2 75 Z M 2 25 " clip-rule="nonzero"/></clipPath><clipPath id="b54d6f578c"><rect x="0" width="39" y="0" height="90"/></clipPath></defs><g clip-path="url(#2012ea4cc6)"><g clip-path="url(#3f481bbfd2)"><g transform="matrix(1, 0, 0, 1, 2, 1)"><g clip-path="url(#9e6ff0284c)"><g clip-path="url(#3e92c52a9c)"><g clip-path="url(#17c7c8386e)"><path fill="#ededed" d="M 0.894531 0.996094 L 107.363281 0.996094 L 107.363281 107.464844 L 0.894531 107.464844 Z M 0.894531 0.996094 " fill-opacity="1" fill-rule="nonzero"/></g></g></g></g></g></g><g transform="matrix(1, 0, 0, 1, 20, -0.000000000000000624)"><g clip-path="url(#42613cdff3)"><g clip-path="url(#d5c6dfbccf)"><g fill="#000000" fill-opacity="1"><g transform="translate(0.699987, 69.075448)"><g><path d="M 35.46875 -6.6875 L 15.6875 -6.6875 L 12.5625 0 L 3.34375 0 L 26.03125 -48.921875 L 47.59375 0 L 38.4375 0 Z M 31.75 -15.09375 L 25.796875 -28.625 L 19.5625 -15.09375 Z M 31.75 -15.09375 "/></g></g></g></g></g></g><g transform="matrix(1, 0, 0, 1, 48, 15)"><g clip-path="url(#b54d6f578c)"><g clip-path="url(#ae0e188fbb)"><g fill="#000000" fill-opacity="1"><g transform="translate(0.331999, 74.199839)"><g><path d="M 32.265625 -6.015625 C 30.585938 -3.941406 28.554688 -2.359375 26.171875 -1.265625 C 23.742188 -0.117188 21.140625 0.453125 18.359375 0.453125 C 14.941406 0.453125 11.769531 -0.515625 8.84375 -2.453125 C 5.925781 -4.335938 3.597656 -6.988281 1.859375 -10.40625 L 9.375 -14.125 C 10.3125 -12.144531 11.570312 -10.609375 13.15625 -9.515625 C 14.75 -8.421875 16.484375 -7.875 18.359375 -7.875 C 21.734375 -7.875 24.410156 -9.265625 26.390625 -12.046875 C 28.378906 -14.816406 29.375 -18.5625 29.375 -23.28125 L 29.375 -48.921875 L 37.703125 -48.921875 L 37.703125 -23.28125 C 37.703125 -16.039062 35.890625 -10.285156 32.265625 -6.015625 Z M 32.265625 -6.015625 "/></g></g></g></g></g></g></svg>